<?xml version="1.0" encoding="UTF-8" standalone="no"?>
<svg
   aria-hidden="true"
   focusable="false"
   data-prefix="fas"
   data-icon="cog"
   class="svg-inline--fa fa-cog fa-w-16"
   role="img"
   viewBox="0 0 512 512"
   version="1.1"
   id="svg4"
   sodipodi:docname="cog-solid.svg"
   inkscape:version="1.1 (c68e22c387, 2021-05-23)"
   xmlns:inkscape="http://www.inkscape.org/namespaces/inkscape"
   xmlns:sodipodi="http://sodipodi.sourceforge.net/DTD/sodipodi-0.dtd"
   xmlns="http://www.w3.org/2000/svg"
   xmlns:svg="http://www.w3.org/2000/svg">
  <defs
     id="defs8" />
  <sodipodi:namedview
     id="namedview6"
     pagecolor="#505050"
     bordercolor="#eeeeee"
     borderopacity="1"
     inkscape:pageshadow="0"
     inkscape:pageopacity="0"
     inkscape:pagecheckerboard="0"
     showgrid="false"
     inkscape:zoom="1.2578125"
     inkscape:cx="256"
     inkscape:cy="254.80745"
     inkscape:window-width="2560"
     inkscape:window-height="1027"
     inkscape:window-x="-8"
     inkscape:window-y="-8"
     inkscape:window-maximized="1"
     inkscape:current-layer="svg4" />
  <path
     fill="currentColor"
     d="M487.4 315.7l-42.6-24.6c4.3-23.2 4.3-47 0-70.2l42.6-24.6c4.9-2.8 7.1-8.6 5.5-14-11.1-35.6-30-67.8-54.7-94.6-3.8-4.1-10-5.1-14.8-2.3L380.8 110c-17.9-15.4-38.5-27.3-60.8-35.1V25.8c0-5.6-3.9-10.5-9.4-11.7-36.7-8.2-74.3-7.8-109.2 0-5.5 1.2-9.4 6.1-9.4 11.7V75c-22.2 7.9-42.8 19.8-60.8 35.1L88.7 85.5c-4.9-2.8-11-1.9-14.8 2.3-24.7 26.7-43.6 58.9-54.7 94.6-1.7 5.4.6 11.2 5.5 14L67.3 221c-4.3 23.2-4.3 47 0 70.2l-42.6 24.6c-4.9 2.8-7.1 8.6-5.5 14 11.1 35.6 30 67.8 54.7 94.6 3.8 4.1 10 5.1 14.8 2.3l42.6-24.6c17.9 15.4 38.5 27.3 60.8 35.1v49.2c0 5.6 3.9 10.5 9.4 11.7 36.7 8.2 74.3 7.8 109.2 0 5.5-1.2 9.4-6.1 9.4-11.7v-49.2c22.2-7.9 42.8-19.8 60.8-35.1l42.6 24.6c4.9 2.8 11 1.9 14.8-2.3 24.7-26.7 43.6-58.9 54.7-94.6 1.5-5.5-.7-11.3-5.6-14.1zM256 336c-44.1 0-80-35.9-80-80s35.9-80 80-80 80 35.9 80 80-35.9 80-80 80z"
     id="path2" />
  <path
     style="fill:#ffffff;stroke-width:0.795031"
     d="m 238.1118,503.16247 c -17.1782,-1.53355 -37.22035,-5.07101 -40.35039,-7.1219 -1.02419,-0.67107 -2.55928,-2.36343 -3.4113,-3.76078 -1.4531,-2.38316 -1.54932,-4.17507 -1.55211,-28.90594 l -0.003,-26.36527 -5.76397,-2.17314 c -17.53961,-6.61279 -36.80811,-17.81375 -51.52943,-29.95454 -1.99584,-1.64598 -3.8878,-2.9927 -4.20435,-2.9927 -0.31655,0 -9.95315,5.42841 -21.41467,12.06313 -24.747248,14.32542 -25.69865,14.75511 -29.889741,13.49943 -6.961925,-2.08584 -27.100787,-27.60794 -40.24886,-51.0076 -9.60252,-17.08964 -20.265748,-43.61652 -20.265748,-50.41504 0,-6.82713 1.350169,-7.81126 44.196903,-32.21504 l 4.047834,-2.30548 -1.191734,-6.62337 c -1.710739,-9.50786 -1.746486,-46.81206 -0.0545,-56.87598 l 1.230824,-7.32095 -21.133297,-12.12647 c -11.623314,-6.66956 -22.474912,-13.43988 -24.114664,-15.04515 -4.847886,-4.74595 -4.328751,-8.97326 3.554497,-28.94425 6.407785,-16.23314 17.230387,-36.2624 27.363548,-50.6414 6.189887,-8.78348 17.607185,-22.655289 21.628187,-26.277856 2.904292,-2.616509 3.801703,-2.981367 7.333016,-2.981367 3.747315,0 5.495142,0.851736 25.442475,12.398398 11.7803,6.819115 22.04313,12.555345 22.80627,12.747175 0.83722,0.21043 3.12179,-1.0929 5.76021,-3.28619 11.88863,-9.882892 35.22615,-23.415099 49.44295,-28.669382 l 6.11378,-2.259542 0.24647,-26.272682 c 0.28231,-30.09162 0.32759,-30.308311 7.01758,-33.582134 4.97589,-2.435006 24.83554,-5.59078 42.46868,-6.7484336 20.50479,-1.3461841 44.0818,0.3166175 64.05113,4.5172976 7.16633,1.507482 10.16804,3.164135 12.29587,6.78611 1.51441,2.577824 1.64369,4.434074 2.01571,28.943821 l 0.39752,26.189346 4.4641,1.728106 c 17.93068,6.941163 38.21083,18.674409 51.79337,29.965483 2.21702,1.843 4.27459,2.9591 4.96603,2.69377 0.64933,-0.24917 10.90304,-6.06974 22.78601,-12.9346 18.68403,-10.793851 22.06477,-12.481553 25.00258,-12.481553 4.31784,0 7.17189,1.966448 13.53542,9.32594 20.82537,24.084753 37.76995,53.599233 47.55465,82.831783 2.65171,7.92217 2.86145,9.13908 2.07719,12.0516 -0.5174,1.92151 -1.92555,4.15875 -3.46089,5.49859 -1.4237,1.24243 -11.99606,7.62542 -23.49412,14.18443 l -20.90556,11.92546 0.45746,4.37267 c 0.25161,2.40497 0.82376,7.0559 1.27145,10.33541 1.33092,9.74949 1.07034,33.56725 -0.49969,45.67162 -0.76827,5.92316 -1.24639,10.89222 -1.06249,11.04235 0.18389,0.15014 9.81511,5.72525 21.40268,12.38913 11.58758,6.66389 22.05789,13.0546 23.26734,14.20158 3.79832,3.60211 4.22132,7.25086 1.76089,15.18893 -8.80089,28.39412 -26.70107,59.86488 -48.30538,84.9269 -6.83396,7.92772 -11.04381,10.49487 -15.44613,9.41896 -1.22145,-0.29852 -12.19562,-6.30236 -24.38706,-13.34186 -15.00198,-8.66236 -22.47795,-12.56469 -23.13067,-12.07382 -0.53042,0.3989 -4.65538,3.52177 -9.16656,6.93969 -13.01385,9.86004 -28.24032,18.45423 -43.84489,24.74712 l -6.63573,2.67601 L 320,463.37086 c -0.37805,25.34751 -0.47778,26.75999 -2.0367,28.84639 -2.84506,3.80771 -5.36544,5.08978 -13.09843,6.66295 -14.76723,3.00418 -25.64092,4.06332 -44.4922,4.3337 -10.27578,0.14738 -20.29317,0.12424 -22.26087,-0.0514 z m 32.19876,-168.15152 c 20.36388,-3.30963 40.54716,-16.58103 52.5136,-34.53001 15.18964,-22.78359 17.60005,-52.43935 6.33302,-77.91613 -9.2601,-20.93873 -30.20067,-38.36742 -53.48186,-44.5126 -16.12147,-4.25534 -36.89247,-2.38177 -53.11051,4.79061 -20.94001,9.26068 -38.40742,30.25083 -44.50605,53.48186 -7.00438,26.68124 1.36355,56.69865 21.29572,76.39196 19.17579,18.94597 43.85237,26.69932 70.95608,22.29431 z"
     id="path104" />
</svg>
