<?xml version="1.0" encoding="UTF-8" standalone="no"?>
<!-- Creator: CorelDRAW 2018 (64 Bit Versão de avaliação) -->

<svg
   xml:space="preserve"
   width="515.98218"
   height="253.58855"
   version="1.1"
   style="clip-rule:evenodd;fill-rule:evenodd;image-rendering:optimizeQuality;shape-rendering:geometricPrecision;text-rendering:geometricPrecision"
   viewBox="0 0 515.98218 253.73"
   id="svg88"
   sodipodi:docname="tecwi.svg"
   inkscape:version="1.1 (c68e22c387, 2021-05-23)"
   xmlns:inkscape="http://www.inkscape.org/namespaces/inkscape"
   xmlns:sodipodi="http://sodipodi.sourceforge.net/DTD/sodipodi-0.dtd"
   xmlns="http://www.w3.org/2000/svg"
   xmlns:svg="http://www.w3.org/2000/svg"><sodipodi:namedview
   id="namedview90"
   pagecolor="#505050"
   bordercolor="#eeeeee"
   borderopacity="1"
   inkscape:pageshadow="0"
   inkscape:pageopacity="0"
   inkscape:pagecheckerboard="0"
   showgrid="false"
   inkscape:zoom="0.65314402"
   inkscape:cx="289.36957"
   inkscape:cy="156.93323"
   inkscape:window-width="2560"
   inkscape:window-height="1027"
   inkscape:window-x="-8"
   inkscape:window-y="-8"
   inkscape:window-maximized="1"
   inkscape:current-layer="Camada_x0020_1" />
 <defs
   id="defs4">
  <style
   type="text/css"
   id="style2">
   <![CDATA[
    .fil5 {fill:#F58634}
    .fil4 {fill:#FEFEFE}
    .fil3 {fill:#FEFEFE}
    .fil2 {fill:#F58634;fill-rule:nonzero}
    .fil1 {fill:#FEFEFE;fill-rule:nonzero}
    .fil0 {fill:#FEFEFE;fill-opacity:0.149020}
   ]]>
  </style>
 </defs>
 <g
   id="Camada_x0020_1"
   inkscape:label="Camada 1"
   inkscape:groupmode="layer"
   transform="translate(-336.90891,-336.04)"><g
   id="g899"><path
     class="fil5"
     d="m 763.34,422.4 c -6.79,1.74 -15.48,6.5 -8.01,12.89 2.31,1.98 4.65,4 6.86,6.13 7.06,6.82 8.1,1.88 15.72,-4.87 1.84,-1.63 5.69,-4.09 4.76,-7.89 -1.06,-4.32 -11.04,-8.39 -19.33,-6.26 z"
     id="path65" /><path
     class="fil4"
     d="m 757.27,452.59 c 2.48,-0.87 11.58,-0.37 14.94,-0.37 6.77,0.01 6.6,2.14 6.56,8.62 v 76.53 c 0,4.55 1.1,11.32 -2.7,12.74 -1.95,0.72 -12.78,0.34 -15.68,0.35 -7.14,0.02 -6.6,-2.2 -6.56,-8.96 0.05,-10.2 0,-20.42 0,-30.62 0,-12.84 -0.56,-41.48 -0.03,-53.62 0.15,-3.55 0.67,-3.69 3.47,-4.67 z m 73.24,-116.55 h 5.56 c 4.68,0.4 8.7,2.15 12.75,7.55 1.78,2.37 3.79,7.4 4.01,12.1 v 1.7 c -0.01,0.31 -0.04,0.62 -0.07,0.93 -1.89,15.94 -2.06,30.36 -3.55,44.16 -0.23,2.19 -0.35,6.04 -0.74,8.67 -1.42,9.46 -2.51,33.1 -3.32,43.77 l -4.12,52.99 c -0.17,2.1 -0.38,6.16 -0.72,8.7 l -2.78,35.49 c -0.06,2.32 -0.39,5.96 -0.68,8.73 -0.23,2.18 -0.34,6.1 -0.73,8.69 -1.06,7.06 -1.62,9.26 -5.05,13.79 -2.29,3.03 -7.15,6.46 -12.38,6.46 -8.78,0 -15.86,-0.6 -24.14,-0.59 -7.09,0.01 -8.06,-0.57 -11.75,-0.61 -3.7,-0.05 -8.17,0.29 -11.76,-0.01 -3.8,-0.31 -7.14,-0.57 -11.81,-0.56 L 631.4,583.38 c -24.75,-2.78 -47.65,7.57 -51.98,-20.43 l -9.17,-148.6 c 0.11,-16.06 -5.28,-42.74 1.31,-54.05 2.89,-4.97 7.54,-9 14.62,-9.52 2.11,-0.16 4.26,0.13 6.37,-0.1 l 22.49,-1.65 c 1.89,-0.16 3.93,0.09 5.82,-0.07 l 28.29,-1.73 c 2.59,-0.13 2.46,-0.53 5.28,-0.61 8.11,-0.22 14.96,-0.93 22.99,-1.14 2.92,-0.07 2.94,-0.54 5.85,-0.62 l 28.31,-1.72 c 1.89,-0.15 3.94,0.09 5.83,-0.06 l 28.29,-1.73 c 2.62,-0.14 2.81,-0.59 5.86,-0.62 1.99,-0.01 3.77,0.13 5.75,-0.14 l 22.52,-1.6 c 1.94,-0.1 3.89,0.13 5.81,-0.09 l 34.21,-2.29 c 3.98,-0.03 7.49,-0.39 10.66,-0.57 z m -93.89,116.3 c 6.45,1.13 2.89,10.09 1.84,15.39 -4.45,22.48 -9.06,48.69 -13.88,70.32 -1.42,6.38 -3.72,10.56 -8.95,12.24 -4.51,1.45 -14.83,1.27 -19.06,-0.31 -9.7,-3.62 -11.07,-17.01 -13.84,-27.96 l -8.77,-32.83 -8.84,33.55 c -2.68,10.54 -4.24,24.39 -14.34,27.45 -4.66,1.42 -15.26,1.37 -19.48,-0.27 -5.19,-2.03 -6.76,-7.18 -8.14,-13.04 -4.53,-19.23 -9.78,-49.59 -13.89,-70.31 -1.18,-5.94 -4.38,-13.65 2.89,-14.32 3.41,-0.31 17.63,-0.54 19.4,0.86 2.36,1.87 3.11,13.32 3.71,17.52 l 8.37,53.98 c 0.02,-0.08 0.12,0.27 0.2,0.4 1.86,-6.02 3.31,-13.05 4.68,-18.86 l 9.3,-37.23 c 2.49,-7.34 7.72,-6.31 16.64,-6.31 16.87,-0.01 14.28,0.1 20.66,25.85 1.2,4.86 7.97,34.18 9.3,36.51 1,-2.85 4.88,-31.28 5.68,-36.71 0.72,-4.89 3.9,-33.37 6.57,-35.27 1.6,-1.14 16.86,-1.19 19.95,-0.65 z m 26.72,-29.94 c 8.29,-2.13 18.27,1.94 19.33,6.26 0.93,3.8 -2.92,6.26 -4.76,7.89 -7.62,6.75 -8.66,11.69 -15.72,4.87 -2.21,-2.13 -4.55,-4.15 -6.86,-6.13 -7.47,-6.39 1.22,-11.15 8.01,-12.89 z m 0.93,-30.13 c 7.55,-1.17 15.84,1.06 22.21,3.66 4.36,1.78 13.32,7.37 14.97,10.97 3.18,6.93 -6.06,13.08 -12.24,7.47 -11.32,-10.28 -27.26,-10.89 -39.08,-3.25 -2.75,1.78 -4.45,4.47 -7.72,5.28 -5.59,1.37 -18.29,-6.52 1.83,-18.21 6.83,-3.98 11.06,-4.53 20.03,-5.92 z m -1.23,-27.13 c 14.82,-2.1 35.11,4.4 47.19,12.38 2.98,1.96 9.31,6.8 10.9,9.09 3.69,5.34 -1.26,11.27 -7.1,10.66 -3.08,-0.32 -4.39,-2.06 -6.24,-3.81 -20.15,-18.96 -57.39,-19.88 -80.33,0.26 -4.66,4.09 -10.19,5.44 -13.31,0.35 -3.73,-6.11 2.58,-10.13 5.71,-12.62 3.67,-2.91 7.54,-5.44 12.19,-7.84 4.77,-2.47 8.94,-4.19 14.3,-5.7 6.17,-1.74 9.97,-1.82 16.69,-2.77 z"
     id="path67" /><path
     class="fil4"
     d="m 440.17,468.5 c 6.02,0 11.82,0 16.83,4.36 4.94,4.3 6.71,13.57 6.71,20.95 h -43.56 c 0,-12.29 6.62,-25.31 20.02,-25.31 z m -36.5,26.49 c 0,21.36 -1.7,44.99 21.38,55.74 12.21,5.68 30.93,3.96 43.8,1.79 2.61,-0.44 5.14,-0.91 7.24,-2.18 5.68,-3.45 4.05,-14.14 -2.96,-14.14 -8.2,0 -29.81,7.11 -42.97,-0.6 -1.74,-1.02 -2.36,-1.67 -3.77,-3.29 -5.4,-6.19 -6.24,-13.95 -6.24,-22.6 h 53.57 c 4.13,0 7.07,-4.11 7.07,-8.25 0,-14.94 -2.34,-25.93 -8.59,-34.98 -2.65,-3.84 -7.49,-7.81 -11.85,-9.92 -7.91,-3.82 -18.22,-4.87 -26.8,-2.92 -7.11,1.61 -14.93,5.7 -19.38,11.23 -5.64,7.02 -10.5,17.63 -10.5,30.12 z"
     id="path69" /><path
     class="fil4"
     d="m 356.57,440.24 v 13.54 c -12.2,0 -20.01,-2.2 -20.01,8.24 0,9.62 10.63,7.66 20.01,7.66 v 62.99 c 0,13.05 7.08,21.78 20.02,21.78 8.09,0 20.01,1.68 20.01,-7.66 0,-6.81 -5.27,-7.7 -10.58,-7.66 -7.28,0.06 -12.96,1.52 -12.96,-5.88 v -63.57 c 12.2,0 23.54,2.41 23.54,-8.25 0,-10.19 -10.98,-7.65 -23.54,-7.65 0,-15.99 1.81,-20.6 -10.01,-20.6 -3.31,0 -6.48,3.89 -6.48,7.06 z"
     id="path71" /><path
     class="fil4"
     d="m 490.2,496.76 c 0,16.54 -0.87,30.27 8.59,43.8 5.36,7.67 15.34,13.89 25.56,13.89 6.76,0 25.43,0.43 29.71,-3.26 4.77,-4.12 3.74,-15 -7.5,-13.43 -11.87,1.66 -28.43,4.25 -35.29,-6.73 -6.45,-10.31 -6,-42.54 -1.23,-52.7 2.16,-4.6 6.3,-8.16 11.87,-9.32 11.96,-2.49 29.6,2.52 33.43,-3.08 2.52,-3.7 1.75,-10.55 -3.79,-12.27 -3.71,-1.15 -15.18,-1.06 -20.14,-1.06 -26.83,0 -41.21,15.72 -41.21,44.16 z"
     id="path73" /><path
     class="fil5"
     d="m 763.04,365.14 c -6.72,0.95 -10.52,1.03 -16.69,2.77 -5.36,1.51 -9.53,3.23 -14.3,5.7 -4.65,2.4 -8.52,4.93 -12.19,7.84 -3.13,2.49 -9.44,6.51 -5.71,12.62 3.12,5.09 8.65,3.74 13.31,-0.35 22.94,-20.14 60.18,-19.22 80.33,-0.26 1.85,1.75 3.16,3.49 6.24,3.81 5.84,0.61 10.79,-5.32 7.1,-10.66 -1.59,-2.29 -7.92,-7.13 -10.9,-9.09 -12.08,-7.98 -32.37,-14.48 -47.19,-12.38 z"
     id="path75" /><path
     class="fil5"
     d="m 764.27,392.27 c -8.97,1.39 -13.2,1.94 -20.03,5.92 -20.12,11.69 -7.42,19.58 -1.83,18.21 3.27,-0.81 4.97,-3.5 7.72,-5.28 11.82,-7.64 27.76,-7.03 39.08,3.25 6.18,5.61 15.42,-0.54 12.24,-7.47 -1.65,-3.6 -10.61,-9.19 -14.97,-10.97 -6.37,-2.6 -14.66,-4.83 -22.21,-3.66 z"
     id="path77" /></g>
  <metadata
   id="CorelCorpID_0Corel-Layer" />
  
  
  
  <!-- Telecom -->
  
  <!-- Telecom -->
  
  
  
  
  <!-- Telecom -->
  
  <!-- Telecom -->
  
  <!-- Energia -->
  
  <!-- Energia -->
  
  <!-- Energia -->
  
  <!-- Energia -->  
  
  
  
  
  
  
  
  
  
  
  
  
  
  
  
  
  
  
  
  <!-- Segurança -->
  
  <!-- Segurança -->
  
  
 </g>
</svg>
